HIERARCHY
ROOT Hips
{
 OFFSET 0.000000 0.000000 0.000000
 CHANNELS 6 Xposition Yposition Zposition Yrotation Xrotation Zrotation
 JOINT Chest
 {
  OFFSET 0.000000 9.585900 0.002600
  CHANNELS 3 Yrotation Xrotation Zrotation
  JOINT Chest2
  {
   OFFSET 0.000000 9.601200 -0.005300
   CHANNELS 3 Yrotation Xrotation Zrotation
   JOINT Chest3
   {
    OFFSET 0.000000 9.561800 0.000000
    CHANNELS 3 Yrotation Xrotation Zrotation
    JOINT Chest4
    {
     OFFSET 0.000000 9.552100 0.000000
     CHANNELS 3 Yrotation Xrotation Zrotation
     JOINT Neck
     {
      OFFSET 0.000000 14.453000 0.000000
      CHANNELS 3 Yrotation Xrotation Zrotation
      JOINT Head
      {
       OFFSET 0.000000 8.936500 -0.011300
       CHANNELS 3 Yrotation Xrotation Zrotation
       End Site
       {
        OFFSET 0.000000 17.073600 -0.006000
       }
      }
     }
     JOINT RightCollar
     {
      OFFSET -2.921100 9.558500 0.000000
      CHANNELS 3 Yrotation Xrotation Zrotation
      JOINT RightShoulder
      {
       OFFSET -13.519700 0.000000 0.000000
       CHANNELS 3 Yrotation Xrotation Zrotation
       JOINT RightElbow
       {
        OFFSET 0.000000 -29.696600 0.000000
        CHANNELS 3 Yrotation Xrotation Zrotation
        JOINT RightWrist
        {
         OFFSET 0.000000 -24.004700 0.000000
         CHANNELS 3 Yrotation Xrotation Zrotation
         End Site
         {
          OFFSET 0.000000 -17.728500 0.000000
         }
        }
       }
      }
     }
     JOINT LeftCollar
     {
      OFFSET 2.921100 9.558500 0.000000
      CHANNELS 3 Yrotation Xrotation Zrotation
      JOINT LeftShoulder
      {
       OFFSET 13.519700 0.000000 0.000000
       CHANNELS 3 Yrotation Xrotation Zrotation
       JOINT LeftElbow
       {
        OFFSET 0.000000 -29.696600 0.000000
        CHANNELS 3 Yrotation Xrotation Zrotation
        JOINT LeftWrist
        {
         OFFSET 0.000000 -24.004700 0.000000
         CHANNELS 3 Yrotation Xrotation Zrotation
         End Site
         {
          OFFSET 0.000000 -17.728500 0.000000
         }
        }
       }
      }
     }
    }
   }
  }
 }
 JOINT RightHip
 {
  OFFSET -7.771700 -0.012900 -0.001300
  CHANNELS 3 Yrotation Xrotation Zrotation
  JOINT RightKnee
  {
   OFFSET 0.000000 -40.869800 0.001200
   CHANNELS 3 Yrotation Xrotation Zrotation
   JOINT RightAnkle
   {
    OFFSET 0.000000 -39.717900 0.002100
    CHANNELS 3 Yrotation Xrotation Zrotation
    JOINT RightToe
    {
     OFFSET 0.000000 -4.965400 11.033500
     CHANNELS 3 Yrotation Xrotation Zrotation
     End Site
     {
      OFFSET 0.000000 -1.423100 5.872300
     }
    }
   }
  }
 }
 JOINT LeftHip
 {
  OFFSET 7.771700 -0.012900 -0.001300
  CHANNELS 3 Yrotation Xrotation Zrotation
  JOINT LeftKnee
  {
   OFFSET 0.000000 -40.869800 0.001200
   CHANNELS 3 Yrotation Xrotation Zrotation
   JOINT LeftAnkle
   {
    OFFSET 0.000000 -39.717900 0.002100
    CHANNELS 3 Yrotation Xrotation Zrotation
    JOINT LeftToe
    {
     OFFSET 0.000000 -4.965400 11.033500
     CHANNELS 3 Yrotation Xrotation Zrotation
     End Site
     {
      OFFSET 0.000000 -1.423100 5.872300
     }
    }
   }
  }
 }
}
MOTION
Frames: 6
Frame Time: 0.008333
0.000000 85.388000 0.000000 0.000000 -5.767877 0.000000 0.000000 11.653817 0.000000 0.000000 -5.885947 0.000000 0.000000 -0.000000 0.000000 0.000000 -0.000000 0.000000 0.000000 12.528835 0.000000 0.000000 0.711642 0.000000 0.000000 -0.000000 0.000000 0.000000 0.000000 -90.000000 0.000000 -2.309062 0.000000 0.000000 2.309062 0.000000 0.000000 -0.000000 0.000000 0.000000 -0.000000 90.000000 0.000000 -2.309062 0.000000 0.000000 2.309062 0.000000 0.000000 8.520406 0.000000 0.000000 1.905762 0.000000 -0.000000 -4.658285 0.000000 0.000000 -0.000000 0.000000 0.000000 8.520406 0.000000 0.000000 1.905762 0.000000 -0.000000 -4.658285 0.000000 0.000000 -0.000000 0.000000
-40.263569 56.371683 -9.240521 -179.305812 -10.744924 -0.227727 -2.016277 15.878694 -0.050409 -0.158469 1.559729 0.093455 -0.306813 2.649925 0.154752 -1.505788 14.180755 0.682202 -0.721151 13.298027 -0.227718 -0.692447 -11.751456 -0.073491 1.523904 1.645084 -0.585448 4.778052 -21.952645 -7.178210 -136.641710 -63.098296 166.584857 -9.272453 -25.323661 -11.566343 -6.247270 0.475724 0.500892 4.046041 -16.473039 5.846949 81.535982 -53.438542 -122.808243 8.538582 -22.672504 9.078446 -3.604574 -64.284050 12.750623 -36.702056 85.063176 -39.993370 -10.363039 -18.403547 14.277000 0.318788 -0.447266 0.128096 18.575053 -58.812441 -22.014829 69.007274 71.002373 69.872444 -6.603536 -15.183840 0.676820 0.304844 0.886066 0.143186
-40.264263 56.371332 -9.241464 -179.298314 -10.724010 -0.228402 -2.079733 15.908389 -0.069744 -0.181041 1.578683 0.093974 -0.301877 2.644116 0.154589 -1.562919 14.196997 0.676698 -0.755133 13.262020 -0.244776 -0.723778 -11.787794 -0.083466 1.604924 1.593909 -0.602535 4.757611 -22.123199 -7.140342 -137.304141 -62.867297 167.200108 -9.205036 -25.469432 -11.665093 -6.259133 0.503033 0.483694 4.077847 -16.473963 5.859955 81.536476 -53.398374 -122.824480 8.494966 -22.818446 9.128235 -3.583283 -64.308851 12.744092 -36.718273 85.067473 -40.012497 -10.406052 -18.403116 14.296516 0.309745 -0.447299 0.130081 18.583082 -58.832372 -22.026491 69.006479 71.014232 69.862369 -6.589571 -15.185713 0.687723 0.296054 0.886275 0.138523
-40.262438 56.370661 -9.240033 -179.280669 -10.682424 -0.247240 -2.147058 15.919574 -0.073226 -0.187738 1.583695 0.094173 -0.312974 2.652123 0.154774 -1.620589 14.212959 0.670070 -0.788455 13.229082 -0.258046 -0.755309 -11.820885 -0.089715 1.620438 1.589633 -0.600288 4.810648 -22.328557 -7.122732 -137.920994 -62.634369 167.774044 -9.140253 -25.628983 -11.748831 -6.273187 0.532782 0.468590 4.115775 -16.469595 5.872926 81.587663 -53.372808 -122.871929 8.485060 -22.946874 9.160634 -3.605981 -64.352237 12.771488 -36.835306 85.060033 -40.121326 -10.431567 -18.400669 14.306137 0.305849 -0.446336 0.131499 18.569680 -58.876028 -22.024200 68.997277 71.018004 69.854296 -6.593787 -15.196184 0.687884 0.299428 0.898858 0.140001
-40.262274 56.370648 -9.241137 -179.268746 -10.650990 -0.256779 -2.210444 15.944210 -0.084875 -0.194245 1.588711 0.094296 -0.323766 2.660107 0.154924 -1.676279 14.228884 0.663359 -0.822599 13.199760 -0.270040 -0.787955 -11.850222 -0.094472 1.631335 1.588262 -0.595041 4.866388 -22.528649 -7.103592 -138.508178 -62.400695 168.324391 -9.083408 -25.795810 -11.824665 -6.293025 0.559379 0.451612 4.156475 -16.459973 5.889569 81.680508 -53.355142 -122.946424 8.495479 -23.062241 9.185487 -3.599943 -64.386112 12.769923 -36.946966 85.056867 -40.225021 -10.432675 -18.405606 14.307973 0.309231 -0.445112 0.138136 18.569496 -58.905243 -22.031165 68.991478 71.018098 69.845029 -6.593753 -15.202685 0.691878 0.293241 0.905398 0.140977
-40.262648 56.370848 -9.242016 -179.253685 -10.613592 -0.265201 -2.276086 15.966517 -0.097434 -0.200298 1.593786 0.094371 -0.333881 2.668212 0.154955 -1.728024 14.245172 0.656522 -0.858884 13.174953 -0.280335 -0.823164 -11.875121 -0.097035 1.654319 1.571937 -0.589680 4.904438 -22.707227 -7.076699 -139.063909 -62.170306 168.851616 -9.034084 -25.963555 -11.889064 -6.320360 0.583305 0.435560 4.195659 -16.449184 5.908299 81.782502 -53.342360 -123.024359 8.505457 -23.174984 9.213284 -3.601230 -64.424343 12.770891 -37.025937 85.055979 -40.297161 -10.445077 -18.416408 14.315429 0.287134 -0.446173 0.137477 18.571864 -58.939281 -22.046967 68.975824 71.017626 69.829698 -6.592499 -15.205704 0.689827 0.289029 0.911408 0.143626
